HIERARCHY
ROOT Hips
{
	OFFSET 0.000000 0.000000 0.053700
	CHANNELS 6 Xposition Yposition Zposition Xrotation Yrotation Zrotation
	JOINT Spine
	{
		OFFSET 0.000000 -0.000000 0.071600
		CHANNELS 6 Xposition Yposition Zposition Xrotation Yrotation Zrotation
		JOINT Spine1
		{
			OFFSET 0.000000 -0.000000 0.081800
			CHANNELS 3 Xrotation Yrotation Zrotation
			JOINT Spine2
			{
				OFFSET 0.000000 -0.000000 0.081800
				CHANNELS 3 Xrotation Yrotation Zrotation
				JOINT Neck
				{
					OFFSET 0.000000 -0.000000 0.071600
					CHANNELS 6 Xposition Yposition Zposition Xrotation Yrotation Zrotation
					JOINT Head
					{
						OFFSET 0.000000 -0.000000 0.051100
						CHANNELS 3 Xrotation Yrotation Zrotation
						End Site
						{
							OFFSET 0.000000 -0.000000 0.051100
						}
					}
				}
				JOINT LeftShoulder
				{
					OFFSET 0.024900 -0.000000 0.061300
					CHANNELS 6 Xposition Yposition Zposition Xrotation Yrotation Zrotation
					JOINT LeftArm
					{
						OFFSET 0.049900 -0.000000 0.000000
						CHANNELS 3 Xrotation Yrotation Zrotation
						JOINT LeftForeArm
						{
							OFFSET 0.099700 -0.000000 0.000000
							CHANNELS 3 Xrotation Yrotation Zrotation
							JOINT LeftHand
							{
								OFFSET 0.099700 -0.000000 0.000000
								CHANNELS 3 Xrotation Yrotation Zrotation
								End Site
								{
									OFFSET 0.099700 -0.000000 0.000000
								}
							}
						}
					}
				}
				JOINT RightShoulder
				{
					OFFSET -0.024900 -0.000000 0.061300
					CHANNELS 6 Xposition Yposition Zposition Xrotation Yrotation Zrotation
					JOINT RightArm
					{
						OFFSET -0.049900 -0.000000 0.000000
						CHANNELS 3 Xrotation Yrotation Zrotation
						JOINT RightForeArm
						{
							OFFSET -0.099700 -0.000000 0.000000
							CHANNELS 3 Xrotation Yrotation Zrotation
							JOINT RightHand
							{
								OFFSET -0.099700 -0.000000 0.000000
								CHANNELS 3 Xrotation Yrotation Zrotation
								End Site
								{
									OFFSET -0.099700 -0.000000 0.000000
								}
							}
						}
					}
				}
			}
		}
	}
	JOINT LeftUpLeg
	{
		OFFSET 0.049900 0.000000 0.000000
		CHANNELS 6 Xposition Yposition Zposition Xrotation Yrotation Zrotation
		JOINT LeftLeg
		{
			OFFSET 0.000000 0.000000 -0.255600
			CHANNELS 3 Xrotation Yrotation Zrotation
			JOINT LeftFoot
			{
				OFFSET 0.000000 0.000000 -0.255600
				CHANNELS 3 Xrotation Yrotation Zrotation
				JOINT LeftToeBase
				{
					OFFSET 0.000000 0.019731 -0.051125
					CHANNELS 3 Xrotation Yrotation Zrotation
					End Site
					{
						OFFSET 0.000000 0.054800 0.000000
					}
				}
			}
		}
	}
	JOINT RightUpLeg
	{
		OFFSET -0.049900 0.000000 0.000000
		CHANNELS 6 Xposition Yposition Zposition Xrotation Yrotation Zrotation
		JOINT RightLeg
		{
			OFFSET 0.000000 0.000000 -0.255600
			CHANNELS 3 Xrotation Yrotation Zrotation
			JOINT RightFoot
			{
				OFFSET 0.000000 0.000000 -0.255600
				CHANNELS 3 Xrotation Yrotation Zrotation
				JOINT RightToeBase
				{
					OFFSET 0.000000 0.019731 -0.051125
					CHANNELS 3 Xrotation Yrotation Zrotation
					End Site
					{
						OFFSET 0.000000 0.054800 0.000000
					}
				}
			}
		}
	}
}
MOTION
Frames: 14
Frame Time: 0.033333
0.075888 0.114502 0.442067 -12.470092 16.154507 -5.931630 0.000000 0.000000 0.071600 6.860898 -1.312717 -6.629239 13.188212 -2.675124 -13.162967 13.242163 -2.826567 -13.055086 -0.000000 -0.000000 0.071600 7.238276 4.007483 -3.684303 -0.000000 0.000001 0.000001 0.024900 -0.000000 0.061300 0.717782 -1.571561 -3.608422 -41.637448 22.718695 0.639546 0.000013 -0.000000 -82.650910 0.000002 -0.000002 0.000001 -0.024900 -0.000000 0.061300 -2.270454 -10.543307 -11.705458 62.830705 -38.168248 26.063527 0.000004 -0.000013 117.524060 0.000000 0.000000 0.000002 0.049900 0.000000 0.000000 -26.597083 -23.410484 3.689208 83.920041 -5.072203 0.979543 -44.260995 5.544980 2.520380 0.000001 -0.000000 0.000000 -0.049900 0.000000 -0.000000 -35.245081 -6.671396 6.682456 82.443798 9.895825 -7.846514 18.685195 -13.088954 1.494100 0.000004 0.000001 0.000001 
0.074500 0.114060 0.442236 -12.099811 16.191792 -6.147753 0.000000 -0.000000 0.071600 6.679551 -1.366082 -6.193899 12.939213 -2.671295 -12.228334 12.988726 -2.785641 -12.136536 -0.000000 -0.000000 0.071600 7.144478 4.162918 -3.817449 -0.000002 -0.000001 -0.000003 0.024900 0.000000 0.061300 0.668297 -1.886713 -3.593124 -38.725865 23.867531 -0.648015 0.000002 0.000014 -86.531912 -0.000000 -0.000004 0.000001 -0.024900 0.000000 0.061300 -2.091661 -10.390039 -11.246466 55.696047 -41.794710 21.606748 0.000023 -0.000018 116.599908 -0.000002 0.000001 -0.000001 0.049900 -0.000000 0.000000 -26.820187 -24.466778 4.183098 83.834507 -4.730195 0.016384 -44.246847 5.112559 2.331139 -0.000001 0.000000 0.000001 -0.049900 -0.000000 0.000000 -35.050738 -6.049564 5.902516 81.965166 9.840901 -6.967719 17.559083 -13.314318 1.483230 -0.000001 0.000001 -0.000002 
0.074548 0.114059 0.443581 -11.066906 16.088640 -9.131463 -0.000000 -0.000000 0.071600 6.508337 -1.212196 -5.235449 12.756329 -2.398717 -10.245599 12.798039 -2.456109 -10.179840 0.000000 -0.000000 0.071600 6.938473 4.254634 -3.949621 -0.000001 0.000001 -0.000000 0.024900 -0.000000 0.061300 0.640655 -1.858200 -3.330799 -32.381281 25.262324 -1.942111 0.000009 0.000018 -92.356698 -0.000001 -0.000000 -0.000000 -0.024900 0.000000 0.061300 -1.818115 -10.136825 -10.499975 44.311764 -44.624969 15.701229 0.000020 -0.000014 114.502555 -0.000002 -0.000000 -0.000001 0.049900 -0.000000 0.000000 -25.967520 -25.598851 5.914877 83.168994 -3.657513 0.415360 -44.227507 5.372393 2.440958 -0.000001 -0.000000 -0.000001 -0.049900 -0.000000 0.000000 -36.305307 -4.059202 5.018729 81.215710 9.016674 -4.449293 16.857899 -13.487708 1.412306 0.000001 0.000001 -0.000001 
0.075957 0.113677 0.445236 -9.739737 15.734201 -14.491841 -0.000000 -0.000000 0.071600 6.392830 -0.822253 -3.873968 12.684307 -1.836476 -7.461644 12.714818 -1.826559 -7.427464 -0.000000 0.000000 0.071600 6.723154 4.275186 -4.075053 -0.000000 0.000002 0.000002 0.024900 0.000000 0.061300 0.638275 -1.478753 -2.877596 -22.869159 26.930473 -2.828627 0.000012 0.000006 -99.186525 0.000001 -0.000001 -0.000002 -0.024900 0.000000 0.061300 -1.493201 -9.808661 -9.560365 30.247035 -45.668721 9.182207 0.000023 -0.000011 111.266186 0.000000 -0.000000 0.000000 0.049900 -0.000000 -0.000000 -23.868771 -26.402516 8.675874 82.177981 -2.003388 2.258650 -44.403873 6.391604 2.888852 -0.000001 0.000000 0.000001 -0.049900 -0.000000 -0.000000 -38.674928 -1.052374 4.116005 80.431850 7.710128 -0.420427 16.946239 -13.866466 1.442718 0.000002 -0.000000 -0.000001 
0.078420 0.112071 0.446320 -8.693883 15.412590 -21.088814 -0.000000 -0.000000 0.071600 6.326082 -0.255996 -2.285422 12.672011 -1.013362 -4.224876 12.687969 -0.937888 -4.221467 0.000000 0.000000 0.071600 6.587150 4.189578 -4.217775 -0.000002 -0.000000 -0.000000 0.024900 0.000000 0.061300 0.647048 -0.775914 -2.265197 -11.034444 29.454774 -2.966268 0.000003 0.000007 -105.989072 -0.000002 -0.000001 0.000002 -0.024900 0.000000 0.061300 -1.168656 -9.448147 -8.565618 15.906307 -44.876679 3.306293 0.000015 -0.000013 107.091998 -0.000002 0.000003 0.000000 0.049900 -0.000000 -0.000000 -20.738614 -26.649177 11.841590 81.224828 -0.166048 5.187475 -44.906294 7.997213 3.621242 0.000002 -0.000000 0.000001 -0.049900 -0.000000 -0.000000 -41.276353 2.525611 2.969195 79.734057 5.929577 4.134500 17.868410 -14.614018 1.618331 0.000005 0.000001 -0.000001 
0.081369 0.109046 0.446124 -8.030265 15.419632 -27.800337 0.000000 -0.000000 0.071600 6.260542 0.357374 -0.662589 12.598968 -0.009340 -0.919959 12.598358 0.117257 -0.939305 -0.000000 0.000000 0.071600 6.559046 3.940127 -4.426734 -0.000002 -0.000002 0.000001 0.024900 0.000000 0.061300 0.640475 0.190681 -1.492752 2.183634 33.602027 -2.837624 0.000008 0.000006 -111.954225 -0.000002 -0.000003 0.000003 -0.024900 0.000000 0.061300 -0.894895 -9.111865 -7.679098 3.117372 -42.850964 -1.308126 0.000005 -0.000001 102.369270 -0.000002 0.000003 -0.000003 0.049900 -0.000000 -0.000000 -17.283215 -26.475818 14.825513 80.644412 1.582804 7.523573 -45.867835 9.122937 5.212461 -0.000002 0.000000 -0.000000 -0.049900 -0.000000 0.000000 -43.463813 6.442108 1.241951 79.282377 3.609932 7.913668 19.325038 -15.330769 1.881839 -0.000003 -0.000000 0.000000 
0.084295 0.105080 0.443932 -7.308564 15.498859 -33.944900 -0.000000 0.000000 0.071600 6.138562 0.886298 0.823910 12.337919 1.069655 2.104148 12.321269 1.221374 2.076217 0.000000 0.000000 0.071600 6.596075 3.475088 -4.753803 -0.000000 0.000000 0.000000 0.024900 -0.000000 0.061300 0.591798 1.333996 -0.552157 16.287279 39.324459 -3.869890 0.000005 0.000010 -116.652186 -0.000001 -0.000001 0.000002 -0.024900 0.000000 0.061300 -0.711960 -8.859263 -7.057424 -7.284230 -40.177263 -4.736122 0.000014 -0.000006 97.652075 0.000003 0.000003 -0.000003 0.049900 0.000000 -0.000000 -14.549015 -26.128733 17.230745 80.731969 3.303069 6.614921 -47.531621 7.905427 8.887826 0.000002 -0.000000 0.000000 -0.049900 0.000000 -0.000000 -45.404441 10.624190 -1.080255 79.386387 0.837087 9.660712 20.902754 -15.494040 2.349807 -0.000000 0.000002 -0.000001 
0.087157 0.101166 0.439773 -6.055399 14.949116 -39.154435 -0.000000 -0.000000 0.071600 5.924240 1.237260 2.048028 11.823297 2.117286 4.595293 11.793315 2.261974 4.575761 0.000000 0.000000 0.071600 6.612030 2.790132 -5.222692 -0.000001 -0.000000 0.000002 0.024900 0.000000 0.061300 0.488775 2.542802 0.523370 31.113226 45.319224 -7.451976 0.000009 0.000000 -119.989075 -0.000000 -0.000003 0.000001 -0.024900 -0.000000 0.061300 -0.640553 -8.733491 -6.804640 -15.054896 -37.232618 -7.190033 0.000005 -0.000012 93.568688 0.000004 0.000002 -0.000001 0.049900 0.000000 0.000000 -13.614806 -25.618202 18.790511 81.520678 5.008584 5.841879 -49.324023 6.749776 11.966240 -0.000002 0.000000 0.000000 -0.049900 0.000000 0.000000 -47.742790 14.914420 -3.635301 80.071441 -2.128119 9.721564 22.190115 -15.417805 2.430450 0.000001 -0.000001 -0.000004 
0.090309 0.098383 0.434362 -4.238366 13.424028 -43.065446 -0.000000 -0.000000 0.071600 5.620819 1.388400 2.948418 11.091017 3.044598 6.426718 11.050711 3.154627 6.429218 -0.000000 0.000000 0.071600 6.524713 1.958849 -5.802812 0.000000 -0.000001 0.000001 0.024900 0.000000 0.061300 0.343237 3.688555 1.628285 45.696264 49.927320 -13.435165 0.000014 0.000020 -122.065671 0.000000 -0.000000 0.000001 -0.024900 0.000000 0.061300 -0.674880 -8.742523 -6.927734 -20.286234 -34.360698 -8.846185 0.000001 -0.000009 90.669839 -0.000002 -0.000000 0.000002 0.049900 -0.000000 0.000000 -14.956738 -25.010280 19.310671 82.868083 6.590324 5.315267 -50.985060 5.761151 14.237250 0.000001 -0.000000 -0.000000 -0.049900 -0.000000 0.000000 -50.713233 19.059643 -6.016419 81.032394 -5.036863 8.703721 23.154133 -15.390808 2.426360 -0.000003 -0.000001 -0.000003 
0.093436 0.097253 0.428785 -2.370597 11.347488 -45.286094 -0.000000 -0.000000 0.071600 5.271388 1.365611 3.522087 10.272199 3.775002 7.579896 10.223042 3.839214 7.609725 -0.000000 0.000000 0.071600 6.297174 1.127066 -6.403317 -0.000001 0.000000 -0.000001 0.024900 0.000000 0.061300 0.187995 4.639393 2.603205 57.415506 52.537781 -19.591990 0.000014 0.000006 -123.070201 0.000000 0.000002 0.000000 -0.024900 0.000000 0.061300 -0.781634 -8.851823 -7.320946 -23.296524 -32.010672 -9.911548 0.000010 -0.000020 89.265463 0.000004 0.000001 -0.000003 0.049900 0.000000 0.000000 -17.874931 -24.399039 18.939356 84.472911 7.723662 5.057993 -52.279200 5.080582 15.585646 -0.000003 -0.000000 0.000000 -0.049900 -0.000000 0.000000 -53.656638 22.892031 -7.950449 81.927443 -7.676867 7.804241 23.756965 -15.492356 2.531811 0.000000 0.000001 -0.000000 
0.095792 0.097712 0.424248 -0.988194 9.509293 -45.722157 -0.000000 -0.000000 0.071600 4.945402 1.219948 3.791850 9.544620 4.242088 8.093213 9.486107 4.270476 8.146183 -0.000000 -0.000000 0.071600 5.954781 0.463626 -6.896583 -0.000000 0.000000 0.000002 0.024900 -0.000000 0.061300 0.063327 5.290912 3.294600 63.401033 53.800867 -23.351508 0.000005 0.000002 -123.241925 0.000002 0.000005 0.000001 -0.024900 -0.000000 0.061300 -0.909544 -8.997155 -7.800266 -24.463654 -30.715494 -10.570159 0.000007 -0.000014 89.328267 -0.000002 0.000003 -0.000006 0.049900 0.000000 0.000000 -21.104752 -23.789489 18.007713 85.927502 8.149767 5.012634 -53.032509 4.762361 16.122091 0.000000 -0.000000 -0.000000 -0.049900 0.000000 -0.000000 -55.703010 26.214949 -9.357284 82.585620 -9.683000 7.832073 23.977342 -15.896668 2.656220 0.000000 -0.000000 0.000001 
0.096848 0.099508 0.421551 -0.191169 8.314587 -44.706300 -0.000000 0.000000 0.071600 4.712545 0.999120 3.770457 9.062572 4.398307 8.011515 8.993997 4.415550 8.077862 -0.000000 -0.000000 0.071600 5.574254 0.091031 -7.165356 0.000002 0.000000 0.000004 0.024900 -0.000000 0.061300 -0.000112 5.581637 3.612309 62.349546 54.413098 -23.579275 -0.000009 0.000010 -122.850159 -0.000001 0.000003 0.000002 -0.024900 -0.000000 0.061300 -1.009253 -9.114743 -8.181656 -24.026859 -30.939668 -10.819772 0.000004 -0.000014 90.525490 -0.000002 -0.000000 -0.000000 0.049900 0.000000 0.000000 -23.901504 -23.176355 16.748988 86.933603 7.910150 5.098986 -53.178770 4.749961 16.115905 -0.000000 -0.000000 0.000000 -0.049900 0.000000 0.000000 -56.891050 28.288878 -10.505449 82.992447 -9.886880 7.780882 24.008583 -17.113587 3.182449 0.000001 0.000001 -0.000000 
0.096410 0.102485 0.421180 0.235263 7.863893 -42.825911 -0.000000 -0.000000 0.071600 4.607557 0.740127 3.456688 8.892901 4.232454 7.366640 8.816923 4.265584 7.435304 0.000000 0.000000 0.071600 5.254370 0.037124 -7.150928 -0.000002 0.000001 -0.000001 0.024900 -0.000000 0.061300 0.008832 5.497295 3.546800 54.793622 54.226422 -20.592288 0.000010 0.000006 -122.142183 -0.000000 -0.000001 0.000001 -0.024900 0.000000 0.061300 -1.054469 -9.171552 -8.364449 -21.948757 -32.870535 -10.360675 0.000012 -0.000013 92.372073 -0.000001 0.000001 -0.000001 0.049900 0.000000 0.000000 -26.020092 -22.794961 15.352653 87.330874 7.212639 5.313882 -52.715301 5.037178 15.717136 -0.000003 0.000000 -0.000000 -0.049900 0.000000 0.000000 -57.149374 29.410651 -11.058993 83.078186 -9.890824 7.553644 24.098203 -18.307711 3.566633 0.000001 0.000001 -0.000000 
0.094340 0.106520 0.423109 0.445072 8.212352 -40.603398 -0.000000 0.000000 0.071600 4.623897 0.432961 2.861807 9.005026 3.767292 6.185775 8.928796 3.833686 6.249293 0.000000 -0.000000 0.071600 5.085594 0.237132 -6.874541 -0.000000 -0.000000 0.000002 0.024900 -0.000000 0.061300 0.082382 5.061850 3.144492 42.873149 52.622673 -15.792678 0.000002 0.000004 -121.273793 -0.000001 -0.000001 -0.000000 -0.024900 -0.000000 0.061300 -1.052742 -9.178386 -8.370749 -17.867324 -36.253633 -8.620407 0.000007 0.000002 94.429305 0.000002 0.000003 -0.000003 0.049900 0.000000 0.000000 -27.357018 -22.989628 14.016099 87.126795 6.198742 5.647659 -51.721331 5.658083 14.931359 0.000002 0.000000 -0.000000 -0.049900 0.000000 0.000000 -56.658079 29.149437 -11.014343 82.853459 -9.911281 6.458148 24.367048 -19.211784 3.711962 -0.000000 -0.000000 0.000001 
